<?xml version="1.0" encoding="utf-8"?>
<!-- Generator: Adobe Illustrator 16.0.0, SVG Export Plug-In . SVG Version: 6.00 Build 0)  -->
<!DOCTYPE svg PUBLIC "-//W3C//DTD SVG 1.1//EN" "http://www.w3.org/Graphics/SVG/1.1/DTD/svg11.dtd">
<svg version="1.1" id="Layer_1" xmlns="http://www.w3.org/2000/svg" xmlns:xlink="http://www.w3.org/1999/xlink" x="0px" y="0px"
	 width="982.208px" height="610.647px" viewBox="0 0 982.208 610.647" enable-background="new 0 0 982.208 610.647"
	 xml:space="preserve">
<g>
	<polygon fill="#FFFFFF" points="977.253,301.5 893.516,301.5 893.516,303.951 977.253,303.951 934.969,359.4 977.253,415.794 
		770.538,415.794 770.538,365.315 768.084,365.315 768.084,415.794 768.084,418.247 770.538,418.247 977.253,418.247 
		982.157,418.247 979.215,414.322 938.043,359.412 979.201,305.44 982.208,301.5 	"/>
	<polygon fill="#FFFFFF" points="4.95,301.5 0.05,301.5 2.99,305.423 44.166,360.338 3.002,414.305 0,418.247 4.95,418.247 
		211.671,418.247 214.122,418.247 214.122,415.794 214.122,365.315 211.671,365.315 211.671,415.794 4.95,415.794 47.237,360.347 
		4.95,303.954 88.693,303.954 88.693,301.5 	"/>
	<path fill="#FFFFFF" d="M214.53,367.43v49.351L98.852,367.43H214.53z M216.983,364.977H86.856l130.127,55.519V364.977z"/>
	<polygon fill="#FFFFFF" points="113.827,375.962 115.053,376.274 115.053,365.315 113.827,365.003 	"/>
	<polygon fill="#FFFFFF" points="106.92,372.242 108.144,372.438 108.144,365.511 106.92,365.312 	"/>
	<rect x="120.979" y="367.228" fill="#FFFFFF" width="1.224" height="11.938"/>
	<rect x="128.127" y="365.312" fill="#FFFFFF" width="1.227" height="16.294"/>
	<rect x="135.895" y="365.315" fill="#FFFFFF" width="1.227" height="20.198"/>
	<rect x="144.171" y="365.995" fill="#FFFFFF" width="1.223" height="22.48"/>
	<rect x="153.37" y="367.397" fill="#FFFFFF" width="1.22" height="25.697"/>
	<rect x="163.172" y="367.493" fill="#FFFFFF" width="1.227" height="29.5"/>
	<rect x="174.059" y="364.897" fill="#FFFFFF" width="1.224" height="36.515"/>
	<rect x="185.241" y="367.254" fill="#FFFFFF" width="1.226" height="39.549"/>
	<rect x="196.583" y="365.998" fill="#FFFFFF" width="1.224" height="44.148"/>
	<rect x="207.312" y="367.225" width="1.224" height="48.587"/>
	<path fill="#FFFFFF" d="M883.336,367.844l-115.681,49.352v-49.352H883.336z M895.333,365.394H765.206v55.517L895.333,365.394z"/>
	<polygon fill="#FFFFFF" points="867.135,365.729 867.135,376.689 868.359,376.38 868.359,365.42 	"/>
	<polygon fill="#FFFFFF" points="874.042,365.929 874.042,372.854 875.265,372.659 875.265,365.729 	"/>
	<rect x="859.984" y="367.646" fill="#FFFFFF" width="1.224" height="11.938"/>
	<rect x="852.827" y="365.729" fill="#FFFFFF" width="1.226" height="16.298"/>
	<rect x="845.067" y="365.729" fill="#FFFFFF" width="1.227" height="20.202"/>
	<rect x="836.789" y="366.413" fill="#FFFFFF" width="1.224" height="22.479"/>
	<rect x="827.595" y="367.817" fill="#FFFFFF" width="1.227" height="25.695"/>
	<rect x="817.787" y="367.908" fill="#FFFFFF" width="1.227" height="29.5"/>
	<rect x="806.906" y="365.315" fill="#FFFFFF" width="1.224" height="36.517"/>
	<rect x="795.718" y="367.678" fill="#FFFFFF" width="1.227" height="39.542"/>
	<rect x="784.379" y="366.413" fill="#FFFFFF" width="1.227" height="44.15"/>
	<rect x="773.651" y="367.643" width="1.224" height="48.586"/>
	<g>
		<path fill-rule="evenodd" clip-rule="evenodd" fill="#FFFFFF" d="M294.08,123.114c1.399,3.43,2.85,6.831,4.348,10.19
			c2.044-2.353,4.126-4.661,6.238-6.922c-3.481-1.163-7-2.266-10.548-3.313C294.106,123.084,294.091,123.1,294.08,123.114"/>
		<path fill-rule="evenodd" clip-rule="evenodd" fill="#FFFFFF" d="M435.838,32.614c-2.973,0.597-5.934,1.244-8.89,1.938
			c0.736,3.068,1.472,6.133,2.202,9.197c2.853-0.666,5.715-1.291,8.585-1.866c2.377-0.48,3.998-3.116,3.542-5.618
			C440.817,33.759,438.32,32.118,435.838,32.614"/>
		<path fill-rule="evenodd" clip-rule="evenodd" fill="#FFFFFF" d="M480.608,36.546c-1.349,3.389-2.64,6.788-3.875,10.194
			c2.885-0.162,5.773-0.269,8.667-0.334c-1.521-3.298-3.096-6.588-4.728-9.863C480.652,36.546,480.628,36.546,480.608,36.546"/>
		<path fill-rule="evenodd" clip-rule="evenodd" fill="#FFFFFF" d="M701.641,145.009c-5.262,4.017-6.308,11.701-2.572,17.308
			c3.787,5.649,11.359,7.751,17.054,4.385c5.729-3.386,7.266-11.633,3.046-17.939C714.993,142.506,706.932,140.969,701.641,145.009"
			/>
		<path fill-rule="evenodd" clip-rule="evenodd" fill="#FFFFFF" d="M491.103,0C343.977,0,221.168,104.072,192.24,242.59h81.59
			c27.196-94.332,114.178-163.354,217.272-163.354c103.074,0,190.07,69.022,217.275,163.354h81.591
			C761.042,104.072,638.235,0,491.103,0 M739.347,198.529c3.86,0,7.078,2.708,7.882,6.327h-15.761
			C732.271,201.237,735.493,198.529,739.347,198.529 M243.501,212.938c-3.854,0-7.076-2.708-7.876-6.327h15.758
			C250.583,210.23,247.362,212.938,243.501,212.938 M235.625,203.104c0.8-3.618,4.021-6.327,7.876-6.327
			c3.86,0,7.082,2.708,7.882,6.327H235.625z M287.088,174.062c-4.146,6.657-9.114,8.985-11.05,9.578
			c-0.838,0.257-1.139,0.308-1.641-0.547c-0.987-1.675-1.962-3.364-2.926-5.068c-0.426-0.838,0.286-1.839,0.771-2.079
			c0.246-0.183,5.306-2.523,7.487-6.001c1.323-2.123,1.04-4.462-0.736-5.624c-2.126-1.389-4.976-0.599-8.69,2.32
			c-4.687,3.658-11.751,8.035-18.137,4.59c-5.265-2.815-7.987-10.75-2.144-20.178c3.951-6.334,9.809-9.125,12.069-10.039
			c0.823-0.443,1.635,0.304,1.828,0.777c0.599,1.854,1.215,3.699,1.846,5.533c0.28,0.773,0.047,2.081-0.64,2.356
			c-0.587,0.314-6.126,2.628-8.369,6.258c-1.323,2.132-1.042,4.497,0.356,5.338c1.93,1.169,4.424,0.233,8.892-3.195
			c4.383-3.459,12.037-7.968,18.718-3.1C289.775,158.683,291.767,166.604,287.088,174.062 M324.987,126.543
			c-1.524,1.451-3.034,2.927-4.526,4.425c-0.727,0.733-1.305,0.805-2.488,0.359c-1.621-0.625-3.247-1.244-4.885-1.852
			c-3.7,3.849-7.307,7.847-10.799,11.989c0.768,1.601,1.545,3.188,2.336,4.769c0.374,0.695,0.517,1.657-0.222,2.564
			c-1.355,1.665-2.692,3.354-4.012,5.062c-0.537,0.703-1.445,0.597-1.854-0.165c-6.994-13.24-13.214-27.116-18.596-41.525
			c-0.134-0.398-0.041-0.955,0.283-1.311c0.152-0.167,0.301-0.337,0.453-0.508c0.321-0.349,0.861-0.496,1.265-0.403
			c14.782,3.986,29.03,8.943,42.673,14.784C325.402,125.069,325.606,125.957,324.987,126.543 M360.567,99.385
			c-0.248,0.162-0.497,0.321-0.742,0.479c-0.14,0.093-0.607,0.174-0.768,0.137c-10.483-2.757-21.426-4.817-32.75-6.084
			c-0.018,0.012-0.032,0.023-0.047,0.035l14.035,17.759c0.374,0.479,0.362,1.182-0.117,1.567c-1.738,1.392-3.458,2.808-5.163,4.253
			c-0.427,0.363-1.168,0.28-1.56-0.18c-8.836-10.356-17.679-20.709-26.524-31.058c-0.388-0.462-0.251-1.219,0.26-1.653
			c0.42-0.356,0.841-0.712,1.261-1.068c11.73,0.302,23.128,1.429,34.108,3.298c0.015-0.012,0.029-0.021,0.046-0.032
			c-4.068-5.915-8.141-11.833-12.212-17.748c-0.344-0.502-0.228-1.244,0.368-1.65c2.158-1.469,4.328-2.904,6.512-4.308
			c0.546-0.346,1.334-0.206,1.662,0.305c7.309,11.49,14.615,22.978,21.928,34.463C361.189,98.414,361.022,99.093,360.567,99.385
			 M405.862,59.25c-4.153,1.432-8.273,2.973-12.355,4.623c1.857,4.548,3.72,9.097,5.578,13.648c0.23,0.559-0.018,1.247-0.523,1.454
			c-1.98,0.807-3.951,1.644-5.914,2.511c-0.546,0.24-1.171-0.077-1.422-0.628c-5.499-12.206-11-24.416-16.496-36.622
			c-0.251-0.554,0-1.259,0.646-1.546c8.089-3.561,16.318-6.731,24.658-9.508c0.668-0.222,1.323,0.132,1.513,0.708
			c0.698,2.091,1.393,4.18,2.088,6.268c0.195,0.58-0.105,1.25-0.748,1.464c-5.402,1.8-10.761,3.771-16.064,5.912
			c1.104,2.694,2.205,5.388,3.309,8.086c4.223-1.708,8.486-3.301,12.779-4.785c0.563-0.191,1.253,0.146,1.452,0.717
			c0.721,2.085,1.439,4.169,2.158,6.254C406.718,58.376,406.399,59.061,405.862,59.25 M453.389,63.777
			c-2.36,0.368-4.716,0.765-7.067,1.199c-0.433,0.081-0.8-0.155-0.952-0.374c-3.364-4.817-6.88-9.567-10.542-14.247
			c-1.296,0.288-2.59,0.581-3.884,0.883c1.197,5.011,2.4,10.022,3.598,15.035c0.14,0.585-0.204,1.229-0.733,1.354
			c-2.082,0.5-4.162,1.022-6.235,1.579c-0.569,0.152-1.133-0.257-1.296-0.841l-10.706-38.685c-0.164-0.583,0.181-1.24,0.858-1.419
			c6.118-1.637,12.283-3.069,18.485-4.294c7.528-1.495,14.557,3.45,15.57,10.585c0.814,5.519-2.067,10.453-6.603,13.432
			c3.53,4.576,6.912,9.216,10.145,13.92C454.521,62.623,454.294,63.64,453.389,63.777 M498.743,60.996
			c-1.992-0.06-3.983-0.095-5.979-0.111c-0.963-0.006-1.393-0.368-1.88-1.521c-0.651-1.594-1.314-3.188-1.992-4.776
			c-5.008,0.045-10.011,0.237-15.01,0.574c-0.546,1.66-1.083,3.317-1.606,4.979c-0.216,0.748-0.745,1.514-1.813,1.606
			c-1.968,0.162-3.936,0.354-5.899,0.562c-0.803,0.09-1.32-0.646-1.092-1.462c4.076-14.135,9.117-28.184,15.112-42.046
			c0.175-0.374,0.602-0.688,1.045-0.709c0.213-0.006,0.427-0.018,0.64-0.023c0.438-0.015,0.888,0.269,1.098,0.628
			c7.061,13.364,13.182,26.981,18.344,40.76C500.009,60.254,499.548,61.023,498.743,60.996 M542.654,65.832
			c-0.129,0.591-0.704,0.965-1.229,0.854c-0.28-0.06-0.563-0.119-0.848-0.175c-0.154-0.034-0.543-0.296-0.627-0.434
			c-5.33-9.265-11.41-18.364-18.22-27.209c-0.021-0.003-0.035-0.006-0.059-0.009c-0.864,7.484-1.734,14.969-2.602,22.453
			c-0.07,0.599-0.563,1.092-1.147,1.029c-2.126-0.233-4.252-0.439-6.378-0.613c-0.537-0.045-0.979-0.625-0.932-1.229
			c1.072-13.551,2.146-27.101,3.212-40.655c0.05-0.602,0.663-1.038,1.294-0.984c0.528,0.041,1.052,0.086,1.577,0.134
			c7.706,8.462,14.697,17.236,20.955,26.222c0.021,0.005,0.038,0.005,0.059,0.008c1.276-7.054,2.556-14.112,3.834-21.168
			c0.108-0.597,0.698-1.041,1.379-0.918c2.499,0.453,4.993,0.94,7.479,1.46c0.619,0.131,1.06,0.776,0.929,1.372
			C548.438,39.256,545.547,52.545,542.654,65.832 M592.408,49.286c-1.357-2.688-3.811-4.796-6.652-5.818
			c-6.641-2.387-13.267,1.573-15.258,8.052c-1.982,6.444,0.858,13.128,6.79,15.266c2.49,0.894,5.539,0.954,8.141-0.04
			c0.512-0.191,1.203,0.085,1.361,0.61c0.744,2.105,1.457,4.214,2.135,6.325c0.198,0.541-0.164,1.247-0.695,1.483
			c-5.058,2.207-10.043,2.249-14.574,0.625c-10.017-3.615-15.884-15.077-12.835-26.83c3.028-11.722,15.565-18.587,27.769-14.204
			c6.016,2.166,9.754,5.699,12.221,10.819c0.324,0.66,0.035,1.333-0.619,1.582c-2.141,0.876-4.254,1.772-6.348,2.696
			C593.281,50.084,592.659,49.839,592.408,49.286 M604.86,88.89c-1.937-1.023-3.884-2.022-5.844-2.987
			c-0.49-0.242-0.686-0.945-0.42-1.489c5.919-12.012,11.838-24.021,17.752-36.033c0.269-0.544,1.027-0.781,1.6-0.496
			c2.308,1.139,4.594,2.311,6.871,3.513c0.573,0.302,0.839,1.059,0.55,1.595c-6.343,11.79-12.688,23.586-19.034,35.381
			C606.048,88.904,605.347,89.146,604.86,88.89 M652.838,82.335c-0.263-0.578-2.044-6.014-5.259-8.2
			c-1.893-1.298-4.118-1.022-5.022,0.345c-1.247,1.88-0.605,4.3,2.266,8.674c2.894,4.278,6.676,11.83,1.568,18.342
			c-3.878,4.928-11.626,6.791-18.26,2.205c-5.908-4.052-7.578-8.867-7.955-10.748c-0.158-0.813-0.176-1.109,0.651-1.603
			c1.632-0.965,3.279-1.916,4.943-2.854c0.798-0.431,1.674,0.269,1.852,0.737c0.138,0.236,1.872,5.159,4.965,7.293
			c1.883,1.292,4.114,1.03,5.347-0.702c1.475-2.072,0.938-4.862-1.486-8.486c-3.049-4.579-6.428-11.428-2.678-17.651
			c3.086-5.129,10.562-7.832,18.935-2.117c5.627,3.872,7.879,9.628,8.603,11.862c0.359,0.807-0.408,1.594-0.876,1.78
			c-1.813,0.571-3.615,1.159-5.408,1.761C654.261,83.24,653.055,83.014,652.838,82.335 M669.119,125.487
			c1.969,1.991,4.792,3.472,7.643,3.792c0.561,0.071,1.092,0.646,1.024,1.206c-0.172,2.301-0.376,4.592-0.607,6.874
			c-0.037,0.588-0.665,1.073-1.264,1.041c-5.651-0.374-10.344-2.704-13.921-6.316c-7.876-8.004-8.614-21.135-0.911-30.54
			c7.68-9.375,22.223-10.038,31.833-0.311c4.745,4.817,6.784,9.853,6.985,15.765c0.035,0.778-0.514,1.259-1.227,1.181
			c-2.365-0.214-4.722-0.391-7.066-0.528c-0.617-0.051-1.096-0.573-1.104-1.2c-0.166-3.136-1.592-6.235-3.834-8.507
			c-5.228-5.295-13.057-4.682-17.598,0.355C664.554,113.314,664.45,120.745,669.119,125.487 M721.443,175.958
			c-10.726,5.671-23.837,1.567-30.411-8.22c-6.538-9.821-4.952-23.041,4.357-30.846c9.277-7.771,23.838-5.493,31.815,6.448
			C735.194,155.281,732.149,170.318,721.443,175.958 M739.347,214.691c-3.854,0-7.076-2.708-7.879-6.327h15.761
			C746.425,211.982,743.208,214.691,739.347,214.691"/>
		<path d="M296.892,392.552c0.009,0.021,0.021,0.041,0.029,0.062C296.912,392.593,296.9,392.572,296.892,392.552"/>
		<path fill="#FFFFFF" d="M563.285,220.871c1.396-7.614,0.135-14.44-3.157-20.175c-5.022-8.774-17.62-16.495-29.789-12.595
			c-0.178-0.981-0.65-1.777-1.743-1.962c0.047-0.685-0.028-2.656-0.028-2.656c0.312-3.791-0.377-6.963-0.748-10.333
			c2.321-2.465,1.799-6.933-0.546-8.406c0.187-0.653-0.289-1.797,0.473-1.986c0.76,0.009,0.531,0.625,1.025,0.796
			c0.648-0.422,1.419,0.2,2.059-0.285c0.505,0.419,0.8,1.444,1.731,1.073c-0.42-0.885-1.641-1.877-2.783-1.764
			c-0.283-0.257-0.414-0.517-0.446-0.784l2.295-0.622c1.697,0.719,3.376,1.483,5.056,2.249l0.102,0.042l0.064,0.034
			c0.047,0.026,0.088,0.047,0.129,0.072c0.087,0.048,0.172,0.098,0.248,0.148c0.157,0.105,0.295,0.225,0.42,0.354
			c0.242,0.257,0.418,0.542,0.535,0.85c0.236,0.609,0.295,1.313,0.213,2.066c-0.091,0.748-0.345,1.53-0.766,2.177
			c-0.207,0.32-0.458,0.603-0.741,0.811c-0.283,0.209-0.593,0.34-0.914,0.391l-1.554,0.162c-0.528,0.047-1.055,0.104-1.574,0.143
			c-1.054,0.089-2.108,0.164-3.156,0.203l0.201,2.539c1.051-0.131,2.1-0.225,3.151-0.305c0.522-0.045,1.048-0.075,1.576-0.114
			l1.595-0.089c0.73-0.045,1.442-0.276,2.062-0.607c0.622-0.336,1.168-0.766,1.63-1.262c0.917-0.984,1.533-2.202,1.775-3.535
			c0.113-0.667,0.14-1.363,0.023-2.063c-0.111-0.696-0.356-1.394-0.739-2.016c-0.38-0.625-0.888-1.166-1.451-1.584
			c-0.28-0.211-0.581-0.391-0.876-0.553c-0.152-0.075-0.304-0.149-0.453-0.218c-0.078-0.033-0.154-0.062-0.228-0.096l-0.198-0.072
			c-1.969-0.771-3.934-1.537-5.867-2.38h-0.003l-0.432-0.186l-0.453,0.146l-0.367,0.12c0.063-0.206,0.11-0.422,0.128-0.639
			c0.164-1.703-0.374-2.482-1.498-3.449c-1.265,0.362-3.489-0.843-4.666-0.337c-0.506-0.222-0.392-0.828-0.844-1.085
			c-0.795,0.2-1.102-0.456-1.598-0.709c-1.624,0.359-2.798-1.119-3.586-1.626c-0.745-0.476-1.574-0.646-2.281-1.091
			c-1.936-1.224-3.422-3.254-4.748-4.659c-1.574-0.625-2.208-1.852-3.417-2.799c-0.616-0.484-1.363-0.741-2.047-1.149
			c-0.452-0.274-0.683-0.845-1.109-1.37c-1.043-1.291-1.37-2.365-1.942-3.881c-0.677-1.77-1.305-3.347-1.965-5.212
			c-0.324-0.911-1.098-2.075-0.763-2.832c0.315-0.718,1.89-0.99,2.354-1.54c0.85-1.014,0.867-2.392,2.103-2.811
			c0.646-0.155,1.516,0.051,1.971-0.417c-0.735-1.464,0.49-2.466,1.422-3.19c0.035-0.469-0.274-0.723-0.012-1.331
			c1.417-1.035,2.906,1.678,4.594,1.091c0.26-7.536-0.817-14.242-7.552-17.469c0,0-1.685-0.978-4.821-2.031
			c-1.357-0.457-4.646,1.32-5.423,1.768c-0.385,1.98-1.293,1.467-1.887,3.014c-0.443,1.149,0.267,3.193,0.149,4.008
			c-0.062,0.426-0.359,0.469-0.534,0.866c-0.141,0.317,0.184,1.119-0.561,0.97c-0.894-0.46-0.111-1.955-1.487-2.117
			c-0.327,0.274,0.552,1.349-0.344,1.465c-1.014-0.238-0.809-1.231-1.738-1.519c-0.184,0.59,0.269,0.787-0.009,1.435
			c-0.441,0.299-0.891,0.58-1.32,0.901c-0.607-0.016-0.54-0.547-0.943-0.225c-0.222,0.735,0.517,0.873,0.412,1.531
			c-0.047,0.266-0.769,0.651-0.307,0.813c0.406,0.409,1.811-0.302,1.962,0.577c0,0-0.479,2.354-5.043,2.469
			c-9.964,4.842-23.046,15.204-28.127,19.987c-6.55,6.423-5.566,10.505-5.566,10.505c0.634,4.294-1.34,7.508-2.146,9.975
			c0.666,0.297,0.643,1.113,0.827,1.633c2.704,7.751,12.177,11.45,16.49,17.933c0.663,1.005,0.976,2.312,1.758,3.29
			c0.651,0.813,1.729,1.216,2.286,1.979c0.491,0.663,1.241,3.293,0.94,4.417c-0.271,1.016-1.624,2.161-2.362,2.969
			c-0.905,0.999-1.796,1.831-2.625,2.69c-0.228,0.356,0.14,0.796-0.225,0.94c-2.678-1.979-5.213-3.17-8.72-4.171
			c-10.045-2.856-17.79-0.778-23.951,3.253c-5.613,3.664-10.37,9.748-12.411,16.918c-2.511,8.831-0.397,16.611,3.358,22.104
			c3.89,5.681,10.995,10.942,20.494,12.703c13.78,2.557,23.333-4.641,29.392-14.984c1.443-0.162,2.515-0.933,4.077-0.907
			c-0.28,2.222-0.876,4.124-0.117,5.601c-0.032,0.476-0.315,0.544-0.354,1.019c3.65,1.478,6.057-0.298,9.193-0.134
			c0.222-0.362,0.409-0.783,0.535-1.31c0.59-0.123,1.398-0.594,1.948-0.308c0.02,0.502-0.771,0.91,0.018,1.329
			c-0.187,0.181-0.552,0.072-0.567,0.529c1.081,0.017,1.562,0.439,2.526,0.048c0.376,0.009,0.032,0.454,0.45,0.437
			c1.302-0.756,3.025,0.038,4.582-0.233c0.327-0.916,1.096-1.119,1.3-2.231c0.446,0.147,0.61-0.169,1.019-0.089
			c0.888-1.256,4.139-0.947,4.579-2.557c0.202-0.736-0.438-1.621-0.785-2.285c-2.526-0.296-5.072-0.496-7.487-1.001
			c-0.549-0.539-0.666-0.511-1.621-0.61c-0.274-0.768-2.926-1.629-2.967-2.359c0.66-0.284,0.155-1.136,1.075-1.288
			c-0.546-0.467,0.143-0.99,0.505-1.203c-0.753-0.077-0.379-0.762-0.006-0.888c-0.327-0.095-0.607-0.22-0.528-0.568
			c0.12-0.2,0.639-0.488,0.485-0.654c-0.657,0.38-0.549-0.838-0.114-0.912c-0.301-0.1-0.707,0.143-0.709-0.276
			c0.07-0.325,0.249-0.472,0.382-0.68c-0.599,0.181-0.876-0.264-0.555-0.91c-0.362,0.08-0.756-0.048-0.657-0.485
			c2.041-3.098,4.815-6.217,7.394-9.282c6.424-7.644,22.459-28.506,23.309-27.026c0.28,0.493,3.706,10.155,4.387,12.191
			c-5.894,2.859-11.019,9.222-12.779,18.486c-0.631,3.308-0.672,6.346-0.414,9.177c0.26,2.862,1.24,5.278,1.918,7.739
			c1.145,2.139,2.138,4.168,3.586,6.262c3.169,4.563,8.448,7.855,15.539,9.871c4.675,1.332,8.506,0.759,11.952-0.14
			c4.564-1.193,8.145-3.134,11.254-6.489c1.034-1.116,2.325-2.105,3.192-3.212C560.472,229.949,562.476,225.281,563.285,220.871
			 M546.774,214.629c3.799,0.456,7.894,1.053,11.581,1.426c0.427,0.928-0.078,2.429-0.219,3.703c-5.049-0.813-9.961-1.4-15.03-2.243
			c0.023-0.876,0.374-1.959,0.333-2.793C544.406,214.196,545.665,214.498,546.774,214.629 M543.348,213.707
			c-0.233-0.09,0.006-0.482-0.189-0.596c0.727-0.22,1.664-0.095,2.397-0.314C545.264,213.245,544.277,213.811,543.348,213.707
			 M558.629,215.351c-4.269-0.183-9.002-1.104-13.348-1.406c1.542-1.661,4.564-1.366,7.563-1.623
			c1.857-0.161,3.683-0.392,5.306-0.508C558.651,212.782,558.428,214.193,558.629,215.351 M558.066,211.242
			c-3.083,0.162-6.05,0.511-9.11,0.705c2.64-1.504,5.402-2.813,8.08-4.261C557.637,208.712,557.923,209.932,558.066,211.242
			 M556.971,207.011c-2.371,1.31-4.862,2.562-7.432,3.863c-1.787,0.91-3.225,1.638-5.759,1.501
			c3.828-2.957,7.741-5.762,11.563-8.731C556.081,204.646,556.387,205.914,556.971,207.011 M555.152,203.046
			c-0.021,0.137-1.247,1.004-1.495,1.19c-3.414,2.532-7.581,5.538-10.609,7.965c-0.222-0.52-1.01-1.15-0.882-1.866
			c0.123-0.66,1.893-2.044,2.622-2.69c2.723-2.4,6.136-5.269,8.303-7.517C553.061,200.54,555.257,202.396,555.152,203.046
			 M540.215,217.16c-0.225-1.361,1.308-0.439,1.635,0.057C541.546,217.588,540.667,217.02,540.215,217.16 M541.532,218.575
			c-0.09,0.289-0.283,0.4-0.619,0.292c-0.058-0.14-0.075-0.311,0.018-0.546C541.19,218.367,541.436,218.424,541.532,218.575
			 M539.646,220.004c-0.059-0.362,0.084-1.454,0.479-1.543C540.791,218.729,540.638,220.335,539.646,220.004 M540.939,214.572
			c0.392,0.025,0.477,0.24,0.681,0.381c-0.213,0.28-0.613,0.254-0.955,0.323C540.679,214.923,540.846,214.806,540.939,214.572
			 M542.368,214.137c-0.038,0.284-0.229,0.307-0.491,0.215C541.906,214.067,542.096,214.041,542.368,214.137 M541.935,215.471
			c0.204,0.293,0.269,0.667,0.301,1.064C541.871,216.31,541.413,215.722,541.935,215.471 M552.851,199.738
			c-3.493,2.924-6.802,6.146-10.232,9.159c-0.097,0.147-0.111-0.018-0.082-0.128c1.18-5.875,4.918-7.853,7.339-11.835
			C551,197.786,551.887,198.784,552.851,199.738 M549.504,196.625c-1.79,2.019-3.446,4.253-5.16,6.394
			c0.461-2.442,1.811-5.447,2.146-8.104c-0.926,0.236-0.844,1.378-1.046,2.072c-0.399,1.361-0.948,2.947-1.407,4.522
			c-0.266,0.939-0.397,2.012-0.768,2.796c-0.769,1.618-2.412,2.548-3.025,3.92c0.511-4.782,1.723-9.989,2.295-14.8
			C545.226,193.911,547.644,195.334,549.504,196.625 M540.834,212.668c-0.581-0.083-1.005,0.102-1.557,0.072
			c0.616-0.346,0.911-1.224,1.729-1.247C541.15,211.765,540.899,212.277,540.834,212.668 M536.574,208.788
			c0.225,0.134,0.286,0.885,0.681,0.382c0.476,0.38,1.234,2.338-0.079,2.189C537.535,210.157,536.647,209.724,536.574,208.788
			 M535.371,217.554c-0.144-0.301-0.462-0.365-0.651-0.046c-0.154-0.318,0.476-0.572,0.879-0.456
			C535.487,217.154,535.4,217.3,535.371,217.554 M532.511,217.976c-0.631-0.631,0.333-2.141,0.646-0.839
			c1.215,0.14,1.802,0.668,1.323,1.86c-0.929-0.028-2.167,1.085-2.736-0.099C531.84,218.332,532.313,218.375,532.511,217.976
			 M533.54,209.941c0.1,0.028,0.204,0.054,0.312,0.078c0.062,0.321,0.134,0.578-0.097,0.858
			C533.089,210.945,533.271,210.175,533.54,209.941 M534.377,219.411c0.082,0.476-0.563,1.005-0.867,1.343
			c-0.351-0.054-0.228-0.398-0.424-0.544C533.381,219.728,533.977,219.728,534.377,219.411 M538.88,212.095
			c0.021,0.415-0.333,0.235-0.359,0.574c-0.443-0.045-0.399-0.688-0.116-0.91C538.761,211.75,538.691,212.001,538.88,212.095
			 M538.872,211.649c0.26-0.447,0.728-0.554,1.244-0.587C539.835,211.424,539.409,212.175,538.872,211.649 M538.13,210.148
			c0.018-0.256-0.076-0.431,0.063-0.755c0.465,0.007,0.509,0.084,0.99,0.013C538.895,209.753,538.778,210.392,538.13,210.148
			 M536.075,217.391c0.314,0.077,0.122,0.93-0.278,0.705C535.887,217.856,536.054,217.742,536.075,217.391 M537.082,218.729
			c0.87,0.79-0.616,1.929-0.729,2.59c-0.447-0.021-0.497-0.29-0.911-0.328c-0.032,0.056-0.088,0.074-0.126,0.118
			C535.627,220.387,536.515,219.451,537.082,218.729 M536.967,217.818c0.144-0.533,0.617-0.539,1.192-0.374
			c0,0.478-0.333,0.427-0.488,0.654C537.33,218.072,537.344,217.824,536.967,217.818 M537.85,220.13
			c0.894,0.182,0.68,1.661-0.631,1.282C537.052,220.883,537.569,220.393,537.85,220.13 M538.17,218.329
			c0.506,0.075,0.316,0.577,0.318,0.957C538.334,219,538.078,218.771,538.17,218.329 M539.128,217.557
			c0.433,0.123-0.134,0.859,0.059,1.122C539.146,218.729,538.788,217.745,539.128,217.557 M540.381,209.03
			c0.698-1.083,1.595-1.845,2.255-2.998c-0.064,1.155-0.722,2.587-1.025,3.84C541.047,209.684,540.855,209.265,540.381,209.03
			 M539.903,192.912c-0.009,0.833-0.26,1.826,0.082,2.442c0.087,0,0.125-0.077,0.23-0.051c0.312-0.511-0.301-3.361,1.933-2.081
			c-1.089,4.892-1.825,10.338-2.66,15.374c-0.54-0.317-1.247-0.542-2.041-0.707c0.289-5.023,0.713-10.13,1.074-15.2
			C538.939,192.735,539.686,192.735,539.903,192.912 M537.864,192.646c-0.355,4.98-0.59,10.358-1.176,15.175
			c-0.868,0.037-0.93-1.087-1.134-1.707c-0.254-0.733-0.461-1.463-0.732-2.049c0.423-3.741-0.263-7.563-0.286-11.33
			C535.625,192.678,536.682,192.559,537.864,192.646 M533.324,209.447c-0.383-0.104-0.569-0.651-0.22-0.933
			C533.63,208.536,533.61,209.211,533.324,209.447 M531.367,204.682c-0.467-1.358-1.054-2.619-1.375-3.972
			c0.006-0.228,0.134-0.257,0.201-0.391c0.129,0.012,0.179,0.066,0.184,0.152c1.043,2.568,2.062,5.156,2.623,8.018
			C531.864,207.601,531.802,205.94,531.367,204.682 M530.388,212.503c-0.23,0.784-0.552,1.421-0.992,1.866
			c-0.604-0.104-1.102-0.275-1.153-0.72C528.712,212.952,529.454,211.972,530.388,212.503 M533.937,192.926
			c0.072,3.11,0.42,6.997,0.373,9.582c-0.929-2.993-2.035-5.877-2.713-9.034C532.395,193.321,533.026,192.887,533.937,192.926
			 M528.555,204.894c0.107,0.027,0.21,0.051,0.312,0.074c0.061,0.142,0.072,0.314-0.018,0.548
			C528.561,205.429,528.45,205.228,528.555,204.894 M528.228,205.812c1.115,1.038,1.48,2.536,2.053,3.909
			c-1.034-0.048-2.409-0.653-3.014-1.266C527.594,207.582,527.842,206.583,528.228,205.812 M528.87,211.927
			c-0.642-0.037-1.422-0.291-2.029-0.263c-0.035-0.696,0.105-1.495,0.205-2.273C528.208,209.852,529.267,210.8,528.87,211.927
			 M528.202,212.429c-0.327,0.239-0.547,0.655-0.876,0.894c-0.427-0.184-0.327-0.688-0.4-1.091
			C527.407,212.394,527.804,212.406,528.202,212.429 M525.672,196.593c0.091,0.003,0.088,0.065,0.076,0.131
			c0.776,2.437,2.029,5.044,2.304,7.499c-0.64-0.101-0.87-0.831-1.238-1.285c-1.106-1.378-2.345-2.947-3.489-4.363
			C524.011,197.762,524.914,197.289,525.672,196.593 M527.655,172.448c-0.376-2.356-0.531-4.846-0.688-7.337
			C529.019,166.441,529.337,169.897,527.655,172.448 M527.296,173.027c-0.403,1.07-3.364,2.251-4.906,1.593
			c1.962-0.87,3.761-2,4.397-5.027C526.849,170.75,527.693,171.958,527.296,173.027 M526.388,164.755
			c-0.318,0.702,0.358,0.79,0.228,1.375c-0.453,0.086-0.92-1.325-1.329-1.86c-0.54-0.048-0.668-0.356-0.966-0.562
			C525.176,163.6,525.678,164.479,526.388,164.755 M495.65,142.217c1.825-0.496,2.336,1.529,3.601,2.954
			c3.35,3.771,6.6,5.649,13.322,7.581c1.278,0.368,2.727,0.434,3.244,1.212c1.265,0.235,2.263,0.63,3.165,1.082
			c-0.029,0.577,0.103,0.862-0.376,1.125c0.572,0.571,1.729,0.781,1.944,1.566c0.307-0.035,0.283-0.607,0.675-0.505
			c-0.073,0.225,0.359,0.14,0.493,0.233c0.138,0.984,0.1,2.078,0.789,2.725c-0.138,0.4-0.538,0.38-0.798,0.58
			c-0.154,0.349,0.132,1.222-0.405,1.232c-0.497,0.22-0.141-0.707-0.196-1.044c-1.325-0.342-2.59,0.607-3.764,0.984
			c-0.067-0.79-0.397-1.417-1.244-1.729c0.032-0.482,0.44-0.348,0.59-0.634c-0.085-0.542-0.304-0.999-0.406-1.532
			c-1.944-0.942-4.406-1.566-6.488-2.425c0.172-0.822-0.395-1.181-0.958-1.549c-0.505,0.045-0.917,0.248-1.398,0.327
			c-3.583-2.382-7.286-5.623-10.42-8.657C496.003,144.759,495.057,144.101,495.65,142.217 M476.709,155.048
			c-0.812,0.066-1.489-0.457-2.22-0.416c0.713-1.692,2.868-1.8,4.302-1.847c-0.543,0.811-1.005,1.755-1.188,3.139
			C476.899,155.882,476.864,155.425,476.709,155.048 M462.205,204.478c1.921,0.547,4.311,1.023,5.283-0.4
			c0.208,0.081,0.137,0.332,0.348,0.41c-3.014,1.582-6.372,2.598-9.461,4.046C459.316,207.216,461.004,205.857,462.205,204.478
			 M467.996,211.702c0.692-0.113,1.498-0.292,1.974-0.412c0.175,0.337,0.26,0.73,0.146,1.25c-3.881,0.359-8.495-0.47-12.668-0.584
			c3.925-1.067,8.027-1.833,11.946-2.9c0.351,0.439,0.5,1.001,0.491,1.66c-1.227,0.081-2.342,0.352-3.458,0.612
			C466.328,212.189,467.385,211.801,467.996,211.702 M469.271,216.086c-2.92-0.084-6.354-0.639-9.31-0.775
			c2.351-1.193,6.871-0.819,10.478,0.505C470.276,216.238,469.581,216.098,469.271,216.086 M469.855,219.205
			c-0.152,0.84-0.219,1.624-0.491,2.537c-2.625-0.97-5.008-2.088-7.54-3.113C464.301,218.497,467.125,218.93,469.855,219.205
			 M450.696,229.229c0.374-1.089,0.222-2.148,0.721-3.033c0.648,1.863,0.87,3.986,1.218,6.032c-0.555-0.006-1.209,0.442-1.618-0.165
			c0.047-0.642,0.462-0.69,0.689-1.047C451.63,230.26,451.233,229.695,450.696,229.229 M452.539,228.451
			c-0.274-1.51-1.057-2.834-0.344-4.605c2.324,1.899,2.774,4.95,3.945,7.558c-1.045,0.14-1.962,0.483-3.011,0.608
			C452.863,230.864,452.767,229.723,452.539,228.451 M454.571,226.394c1.574,1.026,2.973,2.925,4.503,4.273
			c-0.686,0.274-1.498,0.365-2.234,0.574C455.824,229.785,455.465,227.925,454.571,226.394 M452.422,221.029
			c3.881,2.781,7.657,5.627,11.59,8.379c-1.265,0.654-2.911,0.682-4.261,1.199C456.867,227.686,453.318,225.174,452.422,221.029
			 M453.082,223.837c-0.64-0.242-1.06-1.181-1.507-2.018c-0.286-0.533-0.698-1.193-0.123-1.349
			C452.244,221.439,452.407,222.793,453.082,223.837 M448.354,229.333c-0.374-2.149-0.879-4.685-0.938-6.737
			c0.751,0.524,1.288,1.172,1.896,1.777c0.438,0.083,0.333-0.712,0.797-0.581C450.655,225.919,448.588,227.569,448.354,229.333
			 M449.873,208.061c-0.146-0.802,0-1.783-0.032-2.656c0.371,0.114,0.461-0.223,0.809-0.14c-0.096-0.208-0.426-0.271-0.555-0.462
			c0.423-1.146,1.805-0.739,2.616-1.253c0.196,0.012,0.193,0.149,0.082,0.128C451.867,205.213,450.807,206.532,449.873,208.061
			 M446.655,222.085c-0.625,0.385-0.792,1.52-1.197,2.254c-0.164-0.723,0.017-1.527,0.076-2.188
			C445.881,222.091,446.182,221.95,446.655,222.085 M453.648,203.327c0.894-0.14,1.621-0.556,2.491-0.733
			c0.462,1.367-1.288,1.161-1.612,2.157c-0.374-0.04-0.581-0.177-0.815-0.305c-0.052,0.391,0.356,0.496,0.351,0.855
			c-0.891,1.21-2.257,1.644-3.358,2.514C451.385,206.414,452.729,204.831,453.648,203.327 M455.771,206.479
			c-0.628,1.299-1.989,2.661-2.847,4.075c-0.298-0.233-0.491-0.533-0.818-0.748C453.278,208.608,454.595,207.669,455.771,206.479
			 M453.538,211.688c0.023-0.277-0.237-0.386-0.161-0.7c0.902-0.269,1.758-0.616,2.564-1.044c0.102,0.482-1.136,1.227-1.542,1.843
			C454.025,211.61,453.868,211.795,453.538,211.688 M462.213,214.193c-2.269,0.75-4.739,1.191-7.776,0.692
			c-0.041-0.748-0.248-1.397-0.392-2.082C456.694,213.145,459.433,213.631,462.213,214.193 M455.658,212.525
			c3.887,0.029,7.922,0.317,11.908,0.508c-1.162,0.382-2.505,0.474-3.635,0.905C461.203,213.519,458.429,213.022,455.658,212.525
			 M465.212,214.133c1.574-0.434,3.201-0.788,4.886-1.048c0.391,0.5,0.493,1.181,0.412,1.973
			C468.79,214.831,467.038,214.541,465.212,214.133 M455.152,211.853c1.483-2.614,4.687-3.452,7.502-4.62
			c1.901-0.79,3.732-1.531,5.473-2.12c0.508,1.082,0.823,2.284,1.288,3.396C464.751,209.765,459.997,210.88,455.152,211.853
			 M461.577,204.328c-1.372,1.732-3.017,3.014-4.421,4.688c-1.165,0.425-2.295,0.913-3.429,1.395
			c1.516-2.183,3.268-5.224,5.473-6.759C460.137,203.787,460.68,204.168,461.577,204.328 M459.997,196.114
			c-0.315,1.951-1.163,3.044-1.665,4.686c-1.381,0.507-2.436,1.543-4.044,1.687c1.483-2.421,3.171-4.503,4.634-6.955
			C459.34,195.692,459.53,195.988,459.997,196.114 M458.554,195.22c-1.629,2.667-3.44,5.036-5.122,7.616
			c-0.969,0.213-1.866,0.539-2.748,0.891c1.142-3.259,3.011-6.603,4.281-10.13C456.314,194.042,457.398,194.655,458.554,195.22
			 M454.679,193.417c-1.632,3.433-3.157,7.036-4.725,10.58c-0.108-3.681,0.038-7.515,0.151-11.336
			C451.479,192.669,453.035,192.972,454.679,193.417 M449.02,206.089c-0.242-0.117-0.52-0.215-0.427-0.541
			c0.164-0.021,0.514,0.251,0.549,0.021C449.429,205.731,448.944,205.797,449.02,206.089 M449.435,192.724
			c0.263,2.231,0,5.667-0.055,8.594c-0.018,0.928,0.219,2.344-0.021,2.868c-0.295,0.651-1.37,0.633-1.601,1.162
			c-0.707-4.112-1.34-8.267-1.764-12.559C447.183,192.832,448.211,192.624,449.435,192.724 M440.636,219.995
			c0.242-0.622,1.062-1.483,2.018-1.065c0.067,1.149,0.491,2.076,1.852,2.428c-0.117,0.368,0.076,0.548,0.012,0.887
			c-0.604-0.659-1.507-0.162-2.111,0.049c-0.61-0.245-0.932-0.671-1.285-1.082c0.458-0.696,0.97-1.324,1.545-1.838
			C441.903,218.874,441.27,219.818,440.636,219.995 M440.881,220.826c-0.447-0.248-0.073-0.628,0.356-0.577
			C441.126,220.452,440.908,220.484,440.881,220.826 M440.18,218.672c-0.277-0.631,0.222-1.886,0.648-2.275
			c0.312,0.583,0.298,1.364,0.777,1.838C441.272,218.615,440.563,218.375,440.18,218.672 M440.318,219.477
			c-0.389-0.215,0.029-0.431,0.23-0.497C440.811,219.143,440.353,219.322,440.318,219.477 M442.476,208.069
			c0.535,0.087,0.885,1.059,1.554,1.363c-0.082,0.206-0.33,0.138-0.415,0.345C442.8,209.478,442.928,208.592,442.476,208.069
			 M445.402,192.98c0.602,4.294,1.106,8.651,1.79,12.897c-0.876,0.75-1.846,1.346-2.949,1.729c-0.777-4.753-1.945-9.268-2.742-14.01
			C442.82,193.426,443.974,192.98,445.402,192.98 M440.902,193.788c1.2,4.939,2.135,10.041,3.148,15.094
			c-2.468-1.952-3.18-5.03-4.395-7.996c-0.806-1.974-1.723-3.797-2.278-5.729C438.501,194.622,439.699,194.197,440.902,193.788
			 M436.755,195.451c1.536,3.244,2.841,6.635,4.129,10.032c-2.471-2.639-4.851-5.338-7.388-7.938
			C434.492,196.701,435.637,196.093,436.755,195.451 M433.108,197.786c0.093,0.003,0.093,0.066,0.082,0.128
			c2.135,2.097,4.141,4.531,6.226,6.776c1.188,1.285,2.406,2.163,2.833,3.875c-3.75-2.562-7.394-5.969-11.275-8.746
			C431.589,198.984,432.38,198.444,433.108,197.786 M430.661,200.188c4.167,3.229,8.401,6.42,12.229,9.855
			c-0.75,0.837-1.498,1.86-1.571,3.379c-1.396-0.045-2.794-1.361-4.097-2.297c-3.232-2.326-6.541-4.697-9.61-6.919
			C428.523,202.696,429.466,201.233,430.661,200.188 M427.276,204.682c4.059,2.611,7.631,5.522,11.634,8.169
			c-4.322-1.199-8.708-3.133-13.153-4.557C426.134,206.876,426.783,205.907,427.276,204.682 M425.55,208.686
			c4.094,1.432,8.03,2.961,12.215,4.336c-4.176,0.211-8.831-0.345-13.158-0.368C424.809,211.263,425.132,210.037,425.55,208.686
			 M424.616,213.099c5.344,0.469,10.574-0.015,15.979,1.038c-5.23,1.111-10.624,1.961-16.015,2.817
			C424.47,215.745,424.461,214.469,424.616,213.099 M424.537,217.605c5.464-1.219,11.278-1.872,16.739-3.088
			c-0.45,0.959-1.334,2.463-1.565,4.266c-4.895,0.781-9.579,1.92-14.449,2.748C424.914,220.284,424.782,218.909,424.537,217.605
			 M425.477,222.025c4.737-0.856,9.684-2.135,14.321-2.67c-0.158,1.457-1.796,1.646-2.815,2.091
			c-3.23,1.412-6.729,2.965-9.979,4.363C426.283,224.678,425.772,223.415,425.477,222.025 M427.247,226.196
			c3.443-1.498,6.936-2.919,10.338-4.5c0.269,0.06,0.111,0.111,0.056,0.233c-2.76,2.478-5.493,4.988-8.197,7.547
			C428.433,228.553,427.764,227.42,427.247,226.196 M429.656,229.971c3.391-3.135,6.649-6.489,10.262-9.264
			c0.368,0.068,0.26,0.437,0.529,0.568c-2.608,3.872-5.396,7.467-7.996,11.348C431.335,231.854,430.602,230.844,429.656,229.971
			 M432.792,233.033c2.502-3.944,5.335-7.368,7.864-11.268c0.888,0.811,2.245,1.519,3.665,1.313
			c-2.654,4.138-5.438,8.068-8.086,12.207C434.854,234.677,433.966,233.766,432.792,233.033 M436.603,235.592
			c2.71-4.189,5.502-8.241,8.238-12.392c0.493,2.656-1.13,5.487-2.325,8.391c-0.818,2-1.597,3.92-2.354,5.732
			C438.91,236.782,437.742,236.2,436.603,235.592 M440.686,237.446c1.285-3.517,2.76-6.716,4.074-10.18
			c0.097,3.598-0.062,7.35-0.204,11.1C443.308,238.298,441.79,238.032,440.686,237.446 M445.019,238.257
			c0.66-5.327-0.788-10.494,1.665-15.831c0.339,0.8,0.415,2.392,0.672,4.132c0.321,2.132,1.411,4.231-0.538,5.059
			c0.488,0.117,0.976,0.234,1.463,0.348c0.172,2.126,0.639,4.066,0.853,6.163C447.761,238.172,446.543,238.457,445.019,238.257
			 M449.706,238.043c-0.456-1.593-0.479-3.453-0.894-5.068c1.253-0.188,2.794,0.095,3.849-0.41c0.432,1.457,0.689,3.027,0.891,4.627
			C452.255,237.452,451.011,237.795,449.706,238.043 M454.069,236.871c-0.339-1.398-0.508-2.896-0.858-4.287
			c0.935-0.368,2.067-0.405,3.04-0.712c0.844,0.936,1.016,2.288,1.629,3.367C456.747,236.008,455.462,236.534,454.069,236.871
			 M458.268,234.999c-0.4-1.121-0.975-2.134-1.317-3.291c0.902-0.082,1.726-0.287,2.546-0.502c0.824,0.505,1.177,1.296,2.003,1.802
			C460.525,233.84,459.533,234.639,458.268,234.999 M464.567,230.317c-0.724,1.044-1.731,1.629-2.572,2.476
			c-0.777-0.442-1.139-1.139-1.822-1.641c1.387-0.41,2.929-0.565,4.319-0.966C464.681,230.2,464.678,230.336,464.567,230.317
			 M464.789,229.375c-4.328-3.011-8.466-6.141-12.711-9.205c0.584-0.69,1.291-1.178,1.638-2.257c0.219,0.2,0.701-0.177,0.99,0.015
			c3.966,2.62,9.029,5.638,13.044,8.283C466.982,227.62,466.246,229.082,464.789,229.375 M468.083,225.742
			c-4.287-2.445-8.121-5.167-12.306-7.67c4.923-0.23,9.073,2.577,13.462,4.192C469,223.657,468.471,224.584,468.083,225.742
			 M476.061,213.065c-0.128-1.23-0.467-2.329-0.59-3.561c1.186,0.724,1.483,2.003,1.629,3.367
			C476.873,213.128,476.47,213.105,476.061,213.065 M476.07,213.952c0.21-0.333,0.634-0.324,1.063-0.303
			c-0.216,0.237-0.271,0.717-0.532,0.871C476.374,214.358,475.947,214.329,476.07,213.952 M477.302,216.672
			c-0.476,0.1-0.92,0.246-1.323,0.462c-0.192-0.273-0.131-0.695-0.067-1.119C476.406,216.101,477.442,215.976,477.302,216.672
			 M477.057,224.669c-0.207,0.546-0.087,0.885-0.087,1.307c-0.929,1.059-2.596,0.905-3.785,1.527
			c0.949-2.023,1.939-5.248,2.689-8.08c0.073,0.019,0.137,0.037,0.21,0.051c0.8,1.181,0.809,2.533,1.188,3.818
			c0.581,0.028,0.689,0.348,0.973,0.557C477.979,224.336,477.442,224.381,477.057,224.669 M509.354,182.562
			c-5.469,6.982-23.271,30.126-23.271,30.126c-0.368,0.125-0.966-0.125-1.329,0.015c-1.378-7.648,5.151-18.865,3.157-26.293
			c7.683-2.583,16.257-5.214,24.101-7.542C512.079,178.944,510.167,181.527,509.354,182.562 M489.76,181.881
			c-0.064-0.028-0.09-0.006-0.111,0.038c1.25-3.433,4.237-7.057,5.113-10.881c0.056-0.245,0.107-0.682,0.117-0.964
			c0.166-4.984-5.315-6.722-8.347-9.933c-3.04,1.375-3.06-2.961-6.494-3.307c-0.386-0.374-0.433-0.858-1.262-0.742
			c0.494-1.946,1.092-3.732,2.85-3.624c0.607-1.866,2.348-1.882,3.455-2.938c0.473,0.037,0.546,0.321,1.019,0.353
			c0.552-0.528,0.835-0.798,0.479-1.543c0.777,0.01,1.028-0.837,1.519-1.291c3.729,4.509,10.229,7.314,17.203,9.822
			c0.047,1.206,1.206,1.038,2.076,1.489c0.496,0.254,1.262,0.987,1.655,1.384c0.769,0.767,1.46,1.951,1.391,2.981
			c1.253,0.536,1.977,1.4,2.792,2.208c0.63-1.018,2.128-0.85,2.449,0.365c-0.207,0.625-0.662,0.854-1.051,1.181
			c0.359,0.478,1.381,0.056,1.519,0.58c0.189,1.202,1.074,2.414,0.666,3.693c0.119,0.46,0.75,0.61,0.844,1.086
			C516.763,173.427,494.289,180.497,489.76,181.881 M520.122,169.775c-1.221-0.705-1.134-2.212-1.89-3.208
			c1.013-0.625,2.339-0.745,3.241-1.546c0.339,0,0.263,0.251,0.599,0.251c0.899-0.086,1.673-0.371,2.392-0.756
			c0.103,0.023,0.21,0.048,0.31,0.075c1.153,1.406,2.19,2.85,1.595,4.904c-0.716,2.471-3.271,3.053-5.006,3.887
			C520.819,172.26,519.966,171.327,520.122,169.775 M521.415,173.618c1.442-0.221,2.535-1.008,3.706-1.66
			c-0.502,1.311-2.261,1.831-3.461,2.488C521.441,174.255,521.42,173.938,521.415,173.618 M524.171,180.123
			c-0.386-0.054-0.49,0.352-0.853,0.346c0,0-1.127-3.642-1.68-5.476c2.126,0.673,4.211,0.1,5.458-1.133
			c0.587,3.179,0.926,6.982,0.616,10.415c-0.414-0.828-0.148-2.574-0.82-3.507c-0.207,0.095-0.274,0.425-0.461,0.553
			c-0.383-0.182,0.189-0.955-0.301-1.064c-0.271,0.095-0.293,0.586-0.515,0.763c-0.467-0.1-0.274-0.604-0.455-0.885
			c-0.304,0.137,0.026,0.487-0.274,0.708C524.34,180.792,524.425,180.355,524.171,180.123 M524.113,183.639
			c0.365,0.28,0.607,0.637,1.13,0.819c0.485,1.812,1.729,3.158,1.338,5.509L524.113,183.639z M522.782,199
			c1.77,1.88,3.206,3.967,4.76,5.983c-0.239,1.01-0.482,2.021-0.719,3.031c-2.178-1.989-4.277-4.027-6.532-5.964
			C521.047,200.91,521.922,199.972,522.782,199 M519.96,202.52c2.111,1.943,4.173,3.908,6.343,5.812
			c-2.494-0.66-5.326-1.89-7.952-2.771C518.772,204.359,519.412,203.512,519.96,202.52 M518.016,206.032
			c2.725,1.122,5.668,2.1,8.532,3.132c-0.178,0.822-0.295,1.609-0.336,2.35c-3.142-0.415-6.343-0.933-9.496-1.373
			C517.005,208.539,517.607,207.441,518.016,206.032 M516.564,210.766c3.192,0.404,6.451,0.918,9.704,1.423
			c-0.018,0.756,0.318,1.292,0.678,1.815c0.113,0.188,0,0.351-0.286,0.264c0.266,0.46,0.423,0.986,0.902,1.319
			c-3.8-0.326-7.779-0.945-11.605-1.322C516.126,213.117,516.208,212.029,516.564,210.766 M525.354,216.056
			c0.926,0.105,2.132-0.163,2.713,0.644c-0.236,0.553-0.984,0.368-1.428,0.434c-3.235,0.48-7.148,1.102-10.37,1.841
			c-0.345-1.244-0.364-2.688-0.339-4.166C518.976,215.194,522.198,215.691,525.354,216.056 M517.227,222.844
			c-0.359-1.235-0.82-2.406-0.981-3.764c0.152,0.083,0.009,0.349,0.368,0.308c3.533-0.631,7.204-1.047,10.686-1.764
			c0.099,0.149-0.547,0.555-0.955,0.765C523.502,219.839,520.179,221.49,517.227,222.844 M517.496,223.574
			c3.621-1.995,7.403-3.715,10.978-5.787c0.552,0.225,0.776-0.089,1.305,0.09c-0.046,0.12-0.025,0.191,0.056,0.235
			c-0.502,1.006-1.579,1.594-2.427,2.294c-2.578,2.135-5.32,4.465-7.891,6.737C518.62,226.091,518.176,224.755,517.496,223.574
			 M519.864,227.554c3.432-2.816,6.849-5.675,10.209-8.609c0.848,0.816,1.399,1.812,2.509,2.466
			c-3.463,3.119-7.096,5.957-10.627,8.959C521.137,229.503,520.264,228.673,519.864,227.554 M522.375,230.91
			c3.606-3.068,7.204-6.16,10.884-9.113c0.192,0.031,0.192,0.177,0.394,0.205c-2.738,3.947-5.691,7.556-8.541,11.328
			C524.055,232.61,523.216,231.758,522.375,230.91 M525.561,233.769c2.296-3.078,4.69-5.997,6.924-9.175
			c-1.013,3.565-2.794,7.141-4.012,10.859C527.506,235.236,526.496,234.297,525.561,233.769 M528.949,235.783
			c1.696-4.374,3.396-8.762,5.104-13.136c-0.455,4.773-1.08,9.647-1.682,14.503C531.016,236.827,529.971,236.309,528.949,235.783
			 M532.976,237.404c0.648-5.042,1.145-9.981,1.805-15.026c1.492,0.346,2.771,0.352,3.772-0.096
			c-0.552,5.126-1.387,10.428-2.184,15.708C535.3,237.895,534.185,237.729,532.976,237.404 M537.023,238.032
			c0.719-4.754,1.317-9.434,2.048-14.195c0.642,4.659,1.205,9.366,1.729,14.1C539.602,238.077,538.393,238.183,537.023,238.032
			 M541.471,237.88c-0.596-4.45-1.11-8.95-1.671-13.427c1.969,3.932,3.25,8.289,5.277,12.183
			C544.035,237.308,542.68,237.467,541.471,237.88 M545.542,236.525c-2.012-4.854-3.989-9.728-6.027-14.569
			c3.168,3.727,6.109,8.37,9.31,12.372c0.167,0.066,0.207-0.057,0.342-0.031c0.018-0.071,0.029-0.137,0.05-0.208
			c-2.874-4.237-5.957-8.343-9.076-12.426c0.814-0.839,1.65-1.653,2.307-2.759c1.382,0.533,1.919,2,2.695,3.067
			c2.316,3.188,4.705,6.465,6.808,9.896C550.056,233.815,547.942,235.401,545.542,236.525 M552.542,231.232
			c-2.924-3.699-5.332-7.712-8.209-11.441c0.023-0.098,0.146-0.051,0.233-0.054c3.455,2.835,6.562,5.886,9.949,8.765
			C553.963,229.585,553.181,230.285,552.542,231.232 M554.848,228.029c-2.739-2.475-5.438-4.972-8.296-7.379
			c3.335,0.957,6.736,2.631,10.13,3.84C556.142,225.783,555.52,226.95,554.848,228.029 M556.91,223.993
			c-4.064-2.017-9.44-3.221-12.904-5.604c4.562,0.505,9.28,1.262,13.979,2C557.739,221.765,557.284,222.814,556.91,223.993"/>
		<path fill="#FFFFFF" d="M893.516,365.315H88.69V242.592h804.826V365.315z M895.966,240.139h-2.45H88.69h-2.45v2.453v122.724v2.449
			h2.45h804.826h2.45v-2.449V242.592V240.139z"/>
		<path fill="#FFFFFF" d="M174.556,273.536c8.451,0,14.703,2.62,20.444,7.86c0.762,0.675,0.762,1.692,0.09,2.365l-6.591,6.844
			c-0.596,0.593-1.524,0.593-2.114,0c-3.127-2.789-7.266-4.309-11.406-4.309c-9.546,0-16.558,7.94-16.558,17.407
			c0,9.374,7.096,17.15,16.642,17.15c3.969,0,8.282-1.437,11.322-4.056c0.59-0.505,1.691-0.505,2.196,0.083l6.594,7.013
			c0.587,0.593,0.505,1.69-0.085,2.28c-5.747,5.578-13.015,8.197-20.535,8.197c-16.896,0-30.502-13.433-30.502-30.333
			C144.054,287.14,157.659,273.536,174.556,273.536"/>
		<path fill="#FFFFFF" d="M226.281,305.052l-18.669-28.219c-0.681-1.1,0-2.449,1.349-2.449h10.986c0.674,0,1.095,0.422,1.349,0.759
			l11.748,17.319l11.742-17.319c0.254-0.337,0.593-0.759,1.352-0.759h10.983c1.355,0,2.026,1.349,1.355,2.449l-18.926,28.133v26.958
			c0,0.844-0.762,1.604-1.609,1.604h-10.054c-0.929,0-1.606-0.76-1.606-1.604V305.052z"/>
		<path fill="#FFFFFF" d="M300.48,273.536c8.451,0,14.704,2.62,20.444,7.86c0.765,0.675,0.765,1.692,0.091,2.365l-6.591,6.844
			c-0.59,0.593-1.524,0.593-2.114,0c-3.127-2.789-7.266-4.309-11.407-4.309c-9.546,0-16.557,7.94-16.557,17.407
			c0,9.374,7.096,17.15,16.642,17.15c3.969,0,8.282-1.437,11.322-4.056c0.59-0.505,1.691-0.505,2.196,0.083l6.594,7.013
			c0.59,0.593,0.505,1.69-0.084,2.28c-5.747,5.578-13.016,8.197-20.535,8.197c-16.896,0-30.499-13.433-30.499-30.333
			C269.982,287.14,283.584,273.536,300.48,273.536"/>
		<path fill="#FFFFFF" d="M341.308,275.989c0-0.847,0.678-1.603,1.606-1.603h10.054c0.847,0,1.606,0.756,1.606,1.603v45.119h20.108
			c0.932,0,1.606,0.759,1.606,1.604v9.21c0,0.844-0.674,1.604-1.606,1.604h-31.769c-0.928,0-1.606-0.76-1.606-1.604V275.989z"/>
		<path fill="#FFFFFF" d="M394.637,275.989c0-0.847,0.762-1.603,1.606-1.603h10.139c0.844,0,1.606,0.756,1.606,1.603v55.932
			c0,0.844-0.762,1.604-1.606,1.604h-10.139c-0.844,0-1.606-0.76-1.606-1.604V275.989z"/>
		<path fill="#FFFFFF" d="M432.582,275.059c0-0.845,0.759-1.521,1.606-1.521h2.111l33.714,32.445h0.082v-29.994
			c0-0.845,0.68-1.602,1.606-1.602h10.142c0.844,0,1.603,0.756,1.603,1.602v56.864c0,0.844-0.759,1.516-1.603,1.516h-1.353
			c-0.251,0-0.931-0.251-1.098-0.421l-33.375-33.542h-0.088v31.519c0,0.841-0.671,1.601-1.603,1.601h-10.054
			c-0.844,0-1.604-0.76-1.604-1.601L432.582,275.059z"/>
		<path fill="#FFFFFF" d="M534.247,273.622c7.099,0,14.869,2.958,20.616,7.943c0.759,0.588,0.844,1.603,0.163,2.278l-6.672,7.099
			c-0.675,0.593-1.604,0.593-2.281,0.084c-3.209-2.958-6.927-4.055-11.064-4.055c-9.21,0-16.648,7.775-16.648,17.066
			c0,9.208,7.52,16.816,16.73,16.816c2.45,0,4.981-0.339,7.522-1.354v-4.902h-5.323c-0.935,0-1.609-0.673-1.609-1.518v-8.364
			c0-0.933,0.675-1.606,1.609-1.606h16.98c0.844,0,1.519,0.759,1.519,1.606l0.088,22.725c0,0.427-0.342,1.101-0.675,1.353
			c0,0-8.702,5.495-20.955,5.495c-16.814,0-30.333-13.351-30.333-30.251C503.914,287.141,517.432,273.622,534.247,273.622"/>
		<path fill="#FFFFFF" d="M632.622,273.536c8.449,0,14.698,2.62,20.445,7.86c0.759,0.675,0.759,1.692,0.087,2.365l-6.594,6.844
			c-0.593,0.593-1.521,0.593-2.114,0c-3.121-2.789-7.266-4.309-11.403-4.309c-9.549,0-16.558,7.94-16.558,17.407
			c0,9.374,7.094,17.15,16.646,17.15c3.969,0,8.275-1.437,11.315-4.056c0.593-0.505,1.691-0.505,2.202,0.083l6.585,7.013
			c0.593,0.593,0.511,1.69-0.079,2.28c-5.747,5.578-13.015,8.197-20.532,8.197c-16.898,0-30.501-13.433-30.501-30.333
			C602.121,287.14,615.723,273.536,632.622,273.536"/>
		<path fill="#FFFFFF" d="M673.444,275.989c0-0.847,0.675-1.603,1.604-1.603h10.06c0.844,0,1.604,0.756,1.604,1.603v45.119h20.108
			c0.932,0,1.605,0.759,1.605,1.604v9.21c0,0.844-0.674,1.604-1.605,1.604h-31.771c-0.929,0-1.604-0.76-1.604-1.604V275.989z"/>
		<path fill="#FFFFFF" d="M725.254,275.989c0-0.847,0.756-1.603,1.603-1.603h10.394c0.929,0,1.605,0.756,1.605,1.603v34.218
			c0,5.915,4.396,10.65,10.394,10.65c6.086,0,10.562-4.735,10.562-10.65v-34.218c0-0.847,0.677-1.603,1.603-1.603h10.396
			c0.841,0,1.604,0.756,1.604,1.603v34.894c0,12.848-10.814,23.489-24.165,23.489c-13.267,0-23.995-10.641-23.995-23.489V275.989z"
			/>
		<path fill="#FFFFFF" d="M797.172,275.987c0-0.845,0.675-1.602,1.606-1.602h19.688c9.964,0,18.16,6.837,18.16,15.713
			c0,6.503-5.831,11.234-9.8,13.348c4.477,1.86,11.324,5.999,11.324,13.771c0,9.465-8.363,16.31-18.423,16.31h-20.95
			c-0.932,0-1.606-0.763-1.606-1.606V275.987z M816.94,298.379c3.209,0,5.916-2.704,5.916-6.085c0-3.379-2.707-5.744-5.916-5.744
			h-6.588v11.83H816.94z M818.038,321.443c3.297,0,6.083-2.703,6.083-6.166c0-3.382-3.63-5.915-6.924-5.915h-6.845v12.081H818.038z"
			/>
		<path fill="#FFFFFF" d="M722.392,365.315h-22.974l9.237,1.793c-1.904,6.701-4.112,13.27-6.6,19.705l-44.104-21.498h-7.353
			l50.266,24.497c-4.004,9.932-8.688,19.516-14.003,28.691l-82.562-40.246l-14.902-12.942h-4.917l8.611,7.481l-15.352-7.481h-7.356
			l32.117,15.661l69.316,60.223c-6.412,8.521-13.415,16.569-20.943,24.092l-69.303-60.212l-26.834-39.764h-3.896l21.317,31.591
			l-36.359-31.591h-7.14l17.046,49.45l-30.902-45.777l-0.257-3.673h-6.112l3.213,4.766l3.872,55.081l-17.997-52.208l1.483-7.639
			h-3.288l-0.301,1.539l-0.526-1.539h-3.41l2.707,7.863l-10.524,54.214l-3.861-55.093l3.405-6.984h-3.586l-0.271,0.555l-0.038-0.555
			h-3.229l0.444,6.348l-24.2,49.646l10.524-54.21l1.548-1.784h-4.488l-0.062,0.318l-36.22,41.686l20.482-42.004h-3.586
			l-25.073,51.422l-60.221,69.308c-8.518-6.412-16.572-13.412-24.097-20.943l60.22-69.312l45.173-30.475h-5.776l-31.22,21.066
			l18.304-21.066h-4.266L389.2,393.354l-76.115,51.37c-6.559-8.364-12.537-17.197-17.878-26.446l76.142-51.387l4.576-1.576h-9.914
			l-82.984,28.598c-3.936-9.231-7.242-18.789-9.937-28.598h-81.398c27.885,139.904,151.328,245.332,299.415,245.332
			c148.078,0,271.526-105.428,299.412-245.332H722.392z M284.323,396.883l75.233-25.92l-65.944,44.492
			C290.245,409.428,287.141,403.231,284.323,396.883 M315.108,447.247l65.912-44.475l-52.149,60.011
			C324.056,457.824,319.462,452.635,315.108,447.247 M357.833,487.967l52.155-60.028l-34.853,71.499
			C369.184,495.872,363.411,492.04,357.833,487.967 M377.918,501.081l40.247-82.56l40.454-46.549l-11.754,60.542l-40.246,82.569
			C396.684,511.083,387.1,506.399,377.918,501.081 M409.629,516.275l34.861-71.517l-15.17,78.107
			C422.624,520.968,416.06,518.761,409.629,516.275 M432.448,523.716l17.504-90.17l27.021-55.44l4.319,61.515l-17.498,90.144
			C453.097,528.473,442.63,526.438,432.448,523.716 M467.002,530.132l15.165-78.078l5.562,79.313
			C480.742,531.265,473.827,530.855,467.002,530.132 M491.106,531.41h-0.134l-6.43-91.586l11.751-60.545l20.094,58.313l6.422,91.593
			C512.45,530.643,501.867,531.41,491.106,531.41 M526.014,528.729l-5.568-79.354l25.922,75.219
			C539.696,526.271,532.906,527.655,526.014,528.729 M549.493,523.78l-29.921-86.838l-4.315-61.523l34.502,51.142l29.932,86.826
			C569.955,517.537,559.868,521.012,549.493,523.78 M582.649,512.094l-25.923-75.213l44.492,65.929
			C595.194,506.18,588.997,509.278,582.649,512.094 M604.042,501.216l-51.369-76.127l-20.091-58.302l46.554,40.453l51.355,76.098
			C622.126,489.894,613.291,495.872,604.042,501.216 M633.019,481.312l-44.48-65.906l60.017,52.149
			C643.587,472.37,638.407,476.963,633.019,481.312 M673.736,438.598l-60.028-52.161l71.508,34.854
			C681.649,427.244,677.815,433.018,673.736,438.598"/>
	</g>
</g>
</svg>
